<svg width="112" height="27" viewBox="0 0 112 27" fill="none" xmlns="http://www.w3.org/2000/svg">
<g clip-path="url(#clip0_105_1775)">
<path d="M42.7025 13.0903L36.492 5.4043H40.4306L45.2658 11.3488L50.0965 5.4043H54.0352L47.8043 13.0903L54.4597 21.4918H50.5437L45.2681 14.9015L39.9609 21.4918H36.0493L42.7048 13.0903H42.7025Z" fill="#F8FAF8"/>
<path d="M56.6843 5.4043H71.0454V8.1313H60.2029V11.909H70.1127V14.573H60.2029V18.7648H71.1787V21.4918H56.6843V5.4043Z" fill="#F8FAF8"/>
<path d="M74.4058 21.4918V5.4043H83.7352C87.7416 5.4043 90.2575 7.3708 90.2575 10.5883C90.2575 13.0228 88.7669 14.5888 86.5853 15.239L90.3004 21.4918H86.4318L83.0871 15.77H77.9221V21.4918H74.4036H74.4058ZM77.9244 13.043H83.3604C85.6526 13.043 86.7412 12.1048 86.7412 10.5883C86.7412 9.0718 85.6797 8.13355 83.3604 8.13355H77.9244V13.0453V13.043Z" fill="#F8FAF8"/>
<path d="M99.5419 5.4043H103.862L111.5 21.4918H107.785L106.044 17.7635H97.3399L95.6032 21.4918H91.8882L99.5419 5.4043ZM104.849 15.1265L101.708 8.3293L98.5233 15.1265H104.849Z" fill="#F8FAF8"/>
<path d="M16.0243 16.1976L12.9168 10.7998L9.81372 16.1976H16.0243Z" fill="#354DA1"/>
<path d="M9.81361 16.1978L3.60303 27L0.5 21.6L3.60303 16.2H9.81361V16.1978Z" fill="#354DA1"/>
<path d="M16.0242 16.1978L22.2347 27L25.3378 21.6L22.2393 16.2H16.0242V16.1978Z" fill="#354DA1"/>
<path d="M9.81361 10.8022L3.60303 0L0.5 5.4L3.60303 10.8H9.81361V10.8022Z" fill="#00A88B"/>
<path d="M16.0242 10.8022L22.2347 0L25.3378 5.4L22.2393 10.8H16.0242V10.8022Z" fill="#00A88B"/>
</g>
<defs>
<clipPath id="clip0_105_1775">
<rect width="111" height="27" fill="white" transform="translate(0.5)"/>
</clipPath>
</defs>
</svg>
